<?xml version="1.0" encoding="utf-8"?>
<!-- Generator: Adobe Illustrator 27.0.0, SVG Export Plug-In . SVG Version: 6.00 Build 0)  -->
<svg version="1.1" id="Layer_1" xmlns="http://www.w3.org/2000/svg" xmlns:xlink="http://www.w3.org/1999/xlink" x="0px" y="0px"
	 viewBox="0 0 1001.5 1741.6" style="enable-background:new 0 0 1001.5 1741.6;" xml:space="preserve">
<style type="text/css">
	.st0{fill:#009F8B;}
</style>
<polygon class="st0" points="757.1,232 873.3,115.8 757.1,-0.4 244.4,-0.4 128.2,115.8 244.4,232 "/>
<polygon class="st0" points="0,751.7 116.2,867.9 232.4,751.7 232.4,239 116.2,122.8 0,239 "/>
<polygon class="st0" points="769.1,751.7 885.3,867.9 1001.5,751.7 1001.5,239 885.3,122.8 769.1,239 "/>
<polygon class="st0" points="757.1,987.8 873.3,871.6 757.1,755.4 244.4,755.4 128.2,871.6 244.4,987.8 "/>
<polygon class="st0" points="0,1505.5 116.2,1621.7 232.4,1505.5 232.4,992.8 116.2,876.6 0,992.8 "/>
<polygon class="st0" points="769.1,1505.5 885.3,1621.7 1001.5,1505.5 1001.5,992.8 885.3,876.6 769.1,992.8 "/>
<polygon class="st0" points="757.1,1741.6 873.3,1625.4 757.1,1509.2 244.4,1509.2 128.2,1625.4 244.4,1741.6 "/>
</svg>
